<svg xmlns="http://www.w3.org/2000/svg" viewBox="0 0 512 512"><path d="M273.29,29.89l61.56,124.75a19.58,19.58,0,0,0,14.71,10.69l137.67,20a19.53,19.53,0,0,1,10.83,33.32l-99.62,97.11a19.55,19.55,0,0,0-5.62,17.29l23.52,137.11A19.53,19.53,0,0,1,388,490.75L264.86,426a19.54,19.54,0,0,0-18.18,0L123.54,490.75A19.53,19.53,0,0,1,95.2,470.16l23.51-137.11a19.52,19.52,0,0,0-5.61-17.29L13.48,218.65a19.53,19.53,0,0,1,10.83-33.32l137.66-20a19.55,19.55,0,0,0,14.71-10.69L238.25,29.89A19.54,19.54,0,0,1,273.29,29.89Z" fill="#ffd73f"/></svg>